<?xml version="1.0" standalone="no"?>
<!DOCTYPE svg PUBLIC "-//W3C//DTD SVG 20010904//EN"
 "http://www.w3.org/TR/2001/REC-SVG-20010904/DTD/svg10.dtd">
<svg version="1.0" xmlns="http://www.w3.org/2000/svg"
 width="200.000000pt" height="200.000000pt" viewBox="0 0 200.000000 200.000000"
 preserveAspectRatio="xMidYMid meet">

<g transform="translate(0.000000,200.000000) scale(0.100000,-0.100000)"
fill="#000000" stroke="none">
<path d="M950 1991 c-23 -8 -390 -189 -399 -197 -2 -2 15 -24 39 -50 51 -55
84 -127 139 -297 47 -147 68 -243 57 -254 -17 -17 -82 79 -154 227 -110 228
-170 329 -190 316 -8 -5 0 -29 25 -79 20 -40 62 -145 94 -235 70 -198 122
-293 213 -390 l70 -73 24 25 25 24 -23 32 c-27 38 -20 49 15 26 31 -21 51 -15
66 17 9 19 4 33 -32 92 -24 39 -84 166 -135 283 -51 118 -113 245 -138 283
-25 38 -41 69 -35 69 28 0 84 -37 129 -87 68 -74 115 -157 205 -358 42 -93 79
-173 83 -177 7 -7 41 30 261 291 176 210 227 281 210 292 -8 5 -108 57 -222
115 -213 107 -267 125 -327 105z"/>
<path d="M1561 1703 c-44 -98 -211 -317 -427 -559 -304 -342 -443 -548 -522
-774 -41 -119 -48 -165 -26 -174 22 -8 27 -3 49 59 39 109 113 230 131 213 3
-3 -6 -39 -19 -79 -34 -100 -67 -214 -67 -227 0 -12 71 -52 92 -52 7 0 47 -18
88 -40 64 -34 84 -40 138 -40 44 0 75 6 105 21 23 12 225 115 448 231 l406
209 6 181 c4 100 7 329 7 510 l0 329 -27 25 c-36 32 -241 136 -253 129 -6 -4
-10 -13 -10 -22 0 -23 -83 -194 -121 -250 -92 -134 -574 -653 -607 -653 -6 0
-12 6 -12 14 0 16 137 213 220 316 161 200 345 456 425 593 23 40 26 51 14 58
-21 13 -25 11 -38 -18z m169 -214 c-50 -150 -183 -348 -494 -734 -162 -201
-464 -535 -484 -535 -9 0 1 28 33 88 106 196 165 274 561 753 243 293 301 371
359 479 38 71 40 73 43 44 2 -17 -7 -60 -18 -95z m-852 -867 c4 -28 -24 -40
-45 -19 -14 13 -14 19 -3 32 18 22 44 15 48 -13z"/>
<path d="M238 1633 c-60 -31 -108 -62 -108 -69 0 -8 -22 -25 -48 -38 l-49 -25
-6 -107 c-4 -59 -7 -277 -7 -484 0 -346 1 -379 18 -398 24 -27 229 -151 360
-216 l110 -55 6 61 c16 138 89 306 216 494 38 57 70 106 70 108 0 1 -25 20
-55 41 -113 77 -215 256 -326 568 -35 97 -66 177 -69 177 -3 0 -53 -26 -112
-57z"/>
</g>
</svg>
